<svg width="102" height="110" viewBox="0 0 102 110" fill="none" xmlns="http://www.w3.org/2000/svg">
<path d="M7.48849 89.16V62.52L50.4005 1.32H84.8165V61.512H95.1845V89.16H84.8165V105H52.5605V89.16H7.48849ZM55.1525 37.752L39.6005 61.512H55.1525V37.752Z" fill="url(#paint0_linear_70_1027)"/>
<g style="mix-blend-mode:overlay" opacity="0.4">
<mask id="mask0_70_1027" style="mask-type:alpha" maskUnits="userSpaceOnUse" x="7" y="1" width="89" height="104">
<path d="M7.48849 89.16V62.52L50.4005 1.32H84.8165V61.512H95.1845V89.16H84.8165V105H52.5605V89.16H7.48849ZM55.1525 37.752L39.6005 61.512H55.1525V37.752Z" fill="url(#paint1_linear_70_1027)"/>
</mask>
<g mask="url(#mask0_70_1027)">
<rect width="2.29103" height="108.236" rx="1.14552" transform="matrix(0.967094 0.25442 -0.263283 0.964719 16.4968 3)" fill="black"/>
<rect width="2.29103" height="108.236" rx="1.14552" transform="matrix(0.967094 0.25442 -0.263283 0.964719 30.7058 3)" fill="black"/>
<rect width="2.29103" height="108.236" rx="1.14552" transform="matrix(0.967094 0.25442 -0.263283 0.964719 44.9155 3)" fill="black"/>
<rect width="2.29103" height="108.236" rx="1.14552" transform="matrix(0.967094 0.25442 -0.263283 0.964719 59.125 3)" fill="black"/>
<rect width="2.29103" height="108.236" rx="1.14552" transform="matrix(0.967094 0.25442 -0.263283 0.964719 73.334 3)" fill="black"/>
<rect width="2.29103" height="108.236" rx="1.14552" transform="matrix(0.967094 0.25442 -0.263283 0.964719 87.5432 3)" fill="black"/>
<rect width="2.29103" height="108.236" rx="1.14552" transform="matrix(0.967094 0.25442 -0.263283 0.964719 101.752 3)" fill="black"/>
<rect width="2.29103" height="108.236" rx="1.14552" transform="matrix(0.967094 0.25442 -0.263283 0.964719 115.962 3)" fill="black"/>
</g>
</g>
<defs>
<linearGradient id="paint0_linear_70_1027" x1="0.000488281" y1="0" x2="109.855" y2="8.50135" gradientUnits="userSpaceOnUse">
<stop stop-color="#008000"/>
<stop offset="1" stop-color="#6BB748"/>
</linearGradient>
<linearGradient id="paint1_linear_70_1027" x1="0.000488281" y1="0" x2="109.855" y2="8.50135" gradientUnits="userSpaceOnUse">
<stop stop-color="#008000"/>
<stop offset="1" stop-color="#6BB748"/>
</linearGradient>
</defs>
</svg>
