<svg width="96" height="111" viewBox="0 0 96 111" fill="none" xmlns="http://www.w3.org/2000/svg">
<path d="M84.0965 28.816H42.3365V40.912C44.1605 39.28 46.5125 37.984 49.3925 37.024C52.3685 36.064 55.6805 35.584 59.3285 35.584C65.8565 35.584 71.3765 37.12 75.8885 40.192C80.4005 43.264 83.7605 47.392 85.9685 52.576C88.1765 57.664 89.2805 63.328 89.2805 69.568C89.2805 81.088 86.0165 90.064 79.4885 96.496C73.0565 102.832 64.1765 106 52.8485 106C44.5925 106 37.4405 104.56 31.3925 101.68C25.4405 98.8 20.8805 94.816 17.7125 89.728C14.6405 84.64 13.2005 78.832 13.3925 72.304H44.4965C44.4965 73.84 45.0245 75.28 46.0805 76.624C47.1365 77.968 48.8645 78.64 51.2645 78.64C53.6645 78.64 55.4405 77.776 56.5925 76.048C57.7445 74.32 58.3205 71.968 58.3205 68.992C58.3205 66.208 57.6485 64.096 56.3045 62.656C55.0565 61.216 53.2325 60.496 50.8325 60.496C48.8165 60.496 47.2805 60.976 46.2245 61.936C45.1685 62.896 44.6405 64 44.6405 65.248H13.5365V0.735984H84.0965V28.816Z" fill="url(#paint0_linear_70_1041)"/>
<g style="mix-blend-mode:overlay" opacity="0.4">
<mask id="mask0_70_1041" style="mask-type:alpha" maskUnits="userSpaceOnUse" x="13" y="0" width="77" height="106">
<path d="M84.0965 28.816H42.3365V40.912C44.1605 39.28 46.5125 37.984 49.3925 37.024C52.3685 36.064 55.6805 35.584 59.3285 35.584C65.8565 35.584 71.3765 37.12 75.8885 40.192C80.4005 43.264 83.7605 47.392 85.9685 52.576C88.1765 57.664 89.2805 63.328 89.2805 69.568C89.2805 81.088 86.0165 90.064 79.4885 96.496C73.0565 102.832 64.1765 106 52.8485 106C44.5925 106 37.4405 104.56 31.3925 101.68C25.4405 98.8 20.8805 94.816 17.7125 89.728C14.6405 84.64 13.2005 78.832 13.3925 72.304H44.4965C44.4965 73.84 45.0245 75.28 46.0805 76.624C47.1365 77.968 48.8645 78.64 51.2645 78.64C53.6645 78.64 55.4405 77.776 56.5925 76.048C57.7445 74.32 58.3205 71.968 58.3205 68.992C58.3205 66.208 57.6485 64.096 56.3045 62.656C55.0565 61.216 53.2325 60.496 50.8325 60.496C48.8165 60.496 47.2805 60.976 46.2245 61.936C45.1685 62.896 44.6405 64 44.6405 65.248H13.5365V0.735984H84.0965V28.816Z" fill="url(#paint1_linear_70_1041)"/>
</mask>
<g mask="url(#mask0_70_1041)">
<rect width="2.37831" height="112.359" rx="1.18915" transform="matrix(0.967094 0.25442 -0.263283 0.964719 24.8535 1.99998)" fill="black"/>
<rect width="2.37831" height="112.359" rx="1.18915" transform="matrix(0.967094 0.25442 -0.263283 0.964719 39.6042 1.99998)" fill="black"/>
<rect width="2.37831" height="112.359" rx="1.18915" transform="matrix(0.967094 0.25442 -0.263283 0.964719 54.3552 1.99998)" fill="black"/>
<rect width="2.37831" height="112.359" rx="1.18915" transform="matrix(0.967094 0.25442 -0.263283 0.964719 69.1055 1.99998)" fill="black"/>
<rect width="2.37831" height="112.359" rx="1.18915" transform="matrix(0.967094 0.25442 -0.263283 0.964719 83.856 1.99998)" fill="black"/>
<rect width="2.37831" height="112.359" rx="1.18915" transform="matrix(0.967094 0.25442 -0.263283 0.964719 98.6064 1.99998)" fill="black"/>
<rect width="2.37831" height="112.359" rx="1.18915" transform="matrix(0.967094 0.25442 -0.263283 0.964719 113.357 1.99998)" fill="black"/>
</g>
</g>
<defs>
<linearGradient id="paint0_linear_70_1041" x1="0.000488281" y1="0.999985" x2="103.463" y2="8.53571" gradientUnits="userSpaceOnUse">
<stop stop-color="#48B760"/>
<stop offset="1" stop-color="#6BB748"/>
</linearGradient>
<linearGradient id="paint1_linear_70_1041" x1="0.000488281" y1="0.999985" x2="103.463" y2="8.53571" gradientUnits="userSpaceOnUse">
<stop stop-color="#48B760"/>
<stop offset="1" stop-color="#6BB748"/>
</linearGradient>
</defs>
</svg>
