<svg width="100" height="113" viewBox="0 0 100 113" fill="none" xmlns="http://www.w3.org/2000/svg">
<path d="M12.1831 35.712C12.4711 24.288 15.7831 15.552 22.1191 9.504C28.5511 3.456 37.6231 0.431994 49.3351 0.431994C56.9191 0.431994 63.3991 1.72799 68.7751 4.32C74.1511 6.912 78.1831 10.416 80.8711 14.832C83.6551 19.248 85.0471 24.24 85.0471 29.808C85.0471 36.528 83.4631 41.808 80.2951 45.648C77.1271 49.392 73.5751 51.936 69.6391 53.28V53.856C81.1591 58.176 86.9191 66.192 86.9191 77.904C86.9191 84.048 85.4791 89.472 82.5991 94.176C79.7191 98.88 75.5911 102.528 70.2151 105.12C64.9351 107.712 58.6471 109.008 51.3511 109.008C38.8711 109.008 29.0791 106.032 21.9751 100.08C14.8711 94.128 11.2231 84.816 11.0311 72.144H42.1351C41.9431 75.6 42.4231 78.24 43.5751 80.064C44.8231 81.792 46.9351 82.656 49.9111 82.656C51.6391 82.656 53.0791 82.032 54.2311 80.784C55.3831 79.44 55.9591 77.712 55.9591 75.6C55.9591 72.912 55.0471 70.896 53.2231 69.552C51.4951 68.112 48.5191 67.392 44.2951 67.392H38.9671V41.616H44.1511C50.6791 42 53.9431 39.408 53.9431 33.84C53.9431 31.44 53.4151 29.664 52.3591 28.512C51.3991 27.36 50.1511 26.784 48.6151 26.784C45.0631 26.784 43.2871 29.76 43.2871 35.712H12.1831Z" fill="url(#paint0_linear_70_1013)"/>
<g style="mix-blend-mode:overlay" opacity="0.4">
<mask id="mask0_70_1013" style="mask-type:alpha" maskUnits="userSpaceOnUse" x="11" y="0" width="76" height="110">
<path d="M12.1831 35.712C12.4711 24.288 15.7831 15.552 22.1191 9.504C28.5511 3.456 37.6231 0.431994 49.3351 0.431994C56.9191 0.431994 63.3991 1.72799 68.7751 4.32C74.1511 6.912 78.1831 10.416 80.8711 14.832C83.6551 19.248 85.0471 24.24 85.0471 29.808C85.0471 36.528 83.4631 41.808 80.2951 45.648C77.1271 49.392 73.5751 51.936 69.6391 53.28V53.856C81.1591 58.176 86.9191 66.192 86.9191 77.904C86.9191 84.048 85.4791 89.472 82.5991 94.176C79.7191 98.88 75.5911 102.528 70.2151 105.12C64.9351 107.712 58.6471 109.008 51.3511 109.008C38.8711 109.008 29.0791 106.032 21.9751 100.08C14.8711 94.128 11.2231 84.816 11.0311 72.144H42.1351C41.9431 75.6 42.4231 78.24 43.5751 80.064C44.8231 81.792 46.9351 82.656 49.9111 82.656C51.6391 82.656 53.0791 82.032 54.2311 80.784C55.3831 79.44 55.9591 77.712 55.9591 75.6C55.9591 72.912 55.0471 70.896 53.2231 69.552C51.4951 68.112 48.5191 67.392 44.2951 67.392H38.9671V41.616H44.1511C50.6791 42 53.9431 39.408 53.9431 33.84C53.9431 31.44 53.4151 29.664 52.3591 28.512C51.3991 27.36 50.1511 26.784 48.6151 26.784C45.0631 26.784 43.2871 29.76 43.2871 35.712H12.1831Z" fill="url(#paint1_linear_70_1013)"/>
</mask>
<g mask="url(#mask0_70_1013)">
<rect width="2.39038" height="112.93" rx="1.19519" transform="matrix(0.967094 0.25442 -0.263283 0.964719 22.7351 3.7233)" fill="black"/>
<rect width="2.39038" height="112.93" rx="1.19519" transform="matrix(0.967094 0.25442 -0.263283 0.964719 37.5608 3.7233)" fill="black"/>
<rect width="2.39038" height="112.93" rx="1.19519" transform="matrix(0.967094 0.25442 -0.263283 0.964719 52.3865 3.7233)" fill="black"/>
<rect width="2.39038" height="112.93" rx="1.19519" transform="matrix(0.967094 0.25442 -0.263283 0.964719 67.2117 3.7233)" fill="black"/>
<rect width="2.39038" height="112.93" rx="1.19519" transform="matrix(0.967094 0.25442 -0.263283 0.964719 82.0371 3.7233)" fill="black"/>
<rect width="2.39038" height="112.93" rx="1.19519" transform="matrix(0.967094 0.25442 -0.263283 0.964719 96.8623 3.7233)" fill="black"/>
<rect width="2.39038" height="112.93" rx="1.19519" transform="matrix(0.967094 0.25442 -0.263283 0.964719 111.688 3.7233)" fill="black"/>
</g>
</g>
<defs>
<linearGradient id="paint0_linear_70_1013" x1="0" y1="3" x2="107.726" y2="11.1731" gradientUnits="userSpaceOnUse">
<stop stop-color="#48B760"/>
<stop offset="1" stop-color="#6BB748"/>
</linearGradient>
<linearGradient id="paint1_linear_70_1013" x1="0" y1="3" x2="107.726" y2="11.1731" gradientUnits="userSpaceOnUse">
<stop stop-color="#48B760"/>
<stop offset="1" stop-color="#6BB748"/>
</linearGradient>
</defs>
</svg>
