<svg width="82" height="113" viewBox="0 0 82 113" fill="none" xmlns="http://www.w3.org/2000/svg">
<path d="M4.25075 82.512C17.1148 72.912 27.2908 64.224 34.7788 56.448C42.2668 48.576 46.0108 41.232 46.0108 34.416C46.0108 32.112 45.4828 30.336 44.4268 29.088C43.4668 27.84 42.1708 27.216 40.5388 27.216C38.6188 27.216 37.0828 28.224 35.9308 30.24C34.8748 32.16 34.4908 35.136 34.7788 39.168H3.81875C4.10675 30.24 6.02675 22.896 9.57875 17.136C13.2268 11.376 17.9308 7.15199 23.6908 4.46399C29.4508 1.77599 35.7868 0.431994 42.6988 0.431994C54.9868 0.431994 63.9628 3.40799 69.6268 9.35999C75.3868 15.216 78.2668 22.752 78.2668 31.968C78.2668 41.664 75.1468 50.784 68.9068 59.328C62.7628 67.776 55.0348 74.928 45.7228 80.784H78.6988V106.56H4.25075V82.512Z" fill="url(#paint0_linear_70_999)"/>
<g style="mix-blend-mode:overlay" opacity="0.4">
<mask id="mask0_70_999" style="mask-type:alpha" maskUnits="userSpaceOnUse" x="3" y="0" width="76" height="107">
<path d="M4.25075 82.512C17.1148 72.912 27.2908 64.224 34.7788 56.448C42.2668 48.576 46.0108 41.232 46.0108 34.416C46.0108 32.112 45.4828 30.336 44.4268 29.088C43.4668 27.84 42.1708 27.216 40.5388 27.216C38.6188 27.216 37.0828 28.224 35.9308 30.24C34.8748 32.16 34.4908 35.136 34.7788 39.168H3.81875C4.10675 30.24 6.02675 22.896 9.57875 17.136C13.2268 11.376 17.9308 7.15199 23.6908 4.46399C29.4508 1.77599 35.7868 0.431994 42.6988 0.431994C54.9868 0.431994 63.9628 3.40799 69.6268 9.35999C75.3868 15.216 78.2668 22.752 78.2668 31.968C78.2668 41.664 75.1468 50.784 68.9068 59.328C62.7628 67.776 55.0348 74.928 45.7228 80.784H78.6988V106.56H4.25075V82.512Z" fill="url(#paint1_linear_70_999)"/>
</mask>
<g mask="url(#mask0_70_999)">
<rect width="2.70716" height="127.895" rx="1.35358" transform="matrix(0.967094 0.25442 -0.263283 0.964719 14.6404 -4.53586)" fill="black"/>
<rect width="2.70716" height="127.895" rx="1.35358" transform="matrix(0.967094 0.25442 -0.263283 0.964719 31.4309 -4.53586)" fill="black"/>
<rect width="2.70716" height="127.895" rx="1.35358" transform="matrix(0.967094 0.25442 -0.263283 0.964719 48.2214 -4.53586)" fill="black"/>
<rect width="2.70716" height="127.895" rx="1.35358" transform="matrix(0.967094 0.25442 -0.263283 0.964719 65.0112 -4.53586)" fill="black"/>
<rect width="2.70716" height="127.895" rx="1.35358" transform="matrix(0.967094 0.25442 -0.263283 0.964719 81.8013 -4.53586)" fill="black"/>
<rect width="2.70716" height="127.895" rx="1.35358" transform="matrix(0.967094 0.25442 -0.263283 0.964719 98.5913 -4.53586)" fill="black"/>
</g>
</g>
<defs>
<linearGradient id="paint0_linear_70_999" x1="0" y1="3" x2="88.5009" y2="8.50593" gradientUnits="userSpaceOnUse">
<stop stop-color="#008000"/>
<stop offset="1" stop-color="#6BB748"/>
</linearGradient>
<linearGradient id="paint1_linear_70_999" x1="0" y1="3" x2="88.5009" y2="8.50593" gradientUnits="userSpaceOnUse">
<stop stop-color="#008000"/>
<stop offset="1" stop-color="#6BB748"/>
</linearGradient>
</defs>
</svg>
